<svg width="1379" height="790" viewBox="0 0 1379 790" fill="none" xmlns="http://www.w3.org/2000/svg">
<rect width="1379" height="790" fill="#0F0E16"/>
<circle cx="443" cy="237" r="5" fill="white"/>
<circle cx="55" cy="557" r="5" fill="white"/>
<circle cx="1001" cy="606" r="5" fill="white"/>
<circle cx="237" cy="780" r="5" fill="white"/>
<circle cx="637" cy="48" r="5" fill="white"/>
<path opacity="0.2" d="M999 365C1000.66 365 1002 363.657 1002 362C1002 360.343 1000.66 359 999 359C997.343 359 996 360.343 996 362C996 363.657 997.343 365 999 365Z" fill="white"/>
<path opacity="0.2" d="M157 181C158.657 181 160 179.657 160 178C160 176.343 158.657 175 157 175C155.343 175 154 176.343 154 178C154 179.657 155.343 181 157 181Z" fill="white"/>
<path opacity="0.2" d="M386 550C387.657 550 389 548.657 389 547C389 545.343 387.657 544 386 544C384.343 544 383 545.343 383 547C383 548.657 384.343 550 386 550Z" fill="white"/>
<path opacity="0.6" d="M916 181C917.657 181 919 179.657 919 178C919 176.343 917.657 175 916 175C914.343 175 913 176.343 913 178C913 179.657 914.343 181 916 181Z" fill="white"/>
<path opacity="0.6" d="M1046 384C1047.66 384 1049 382.657 1049 381C1049 379.343 1047.66 378 1046 378C1044.34 378 1043 379.343 1043 381C1043 382.657 1044.34 384 1046 384Z" fill="white"/>
<path opacity="0.6" d="M769 254C770.657 254 772 252.657 772 251C772 249.343 770.657 248 769 248C767.343 248 766 249.343 766 251C766 252.657 767.343 254 769 254Z" fill="white"/>
<path opacity="0.2" d="M591 129C592.657 129 594 127.657 594 126C594 124.343 592.657 123 591 123C589.343 123 588 124.343 588 126C588 127.657 589.343 129 591 129Z" fill="white"/>
<path opacity="0.2" d="M517 383C518.657 383 520 381.657 520 380C520 378.343 518.657 377 517 377C515.343 377 514 378.343 514 380C514 381.657 515.343 383 517 383Z" fill="white"/>
<path opacity="0.2" d="M378 476C379.657 476 381 474.657 381 473C381 471.343 379.657 470 378 470C376.343 470 375 471.343 375 473C375 474.657 376.343 476 378 476Z" fill="white"/>
<path opacity="0.2" d="M536 601C537.657 601 539 599.657 539 598C539 596.343 537.657 595 536 595C534.343 595 533 596.343 533 598C533 599.657 534.343 601 536 601Z" fill="white"/>
<path opacity="0.2" d="M794 591C795.657 591 797 589.657 797 588C797 586.343 795.657 585 794 585C792.343 585 791 586.343 791 588C791 589.657 792.343 591 794 591Z" fill="white"/>
<path opacity="0.2" d="M972 434C973.657 434 975 432.657 975 431C975 429.343 973.657 428 972 428C970.343 428 969 429.343 969 431C969 432.657 970.343 434 972 434Z" fill="white"/>
<path opacity="0.2" d="M1148 206C1149.66 206 1151 204.657 1151 203C1151 201.343 1149.66 200 1148 200C1146.34 200 1145 201.343 1145 203C1145 204.657 1146.34 206 1148 206Z" fill="white"/>
<path opacity="0.2" d="M879 246C880.657 246 882 244.657 882 243C882 241.343 880.657 240 879 240C877.343 240 876 241.343 876 243C876 244.657 877.343 246 879 246Z" fill="white"/>
<path opacity="0.6" d="M157 221C158.657 221 160 219.657 160 218C160 216.343 158.657 215 157 215C155.343 215 154 216.343 154 218C154 219.657 155.343 221 157 221Z" fill="white"/>
<path opacity="0.6" d="M201 145C202.657 145 204 143.657 204 142C204 140.343 202.657 139 201 139C199.343 139 198 140.343 198 142C198 143.657 199.343 145 201 145Z" fill="white"/>
<path opacity="0.6" d="M197 175C198.657 175 200 173.657 200 172C200 170.343 198.657 169 197 169C195.343 169 194 170.343 194 172C194 173.657 195.343 175 197 175Z" fill="white"/>
<path opacity="0.6" d="M168 143C169.657 143 171 141.657 171 140C171 138.343 169.657 137 168 137C166.343 137 165 138.343 165 140C165 141.657 166.343 143 168 143Z" fill="white"/>
<path opacity="0.6" d="M1090 444C1091.66 444 1093 442.657 1093 441C1093 439.343 1091.66 438 1090 438C1088.34 438 1087 439.343 1087 441C1087 442.657 1088.34 444 1090 444Z" fill="white"/>
<path opacity="0.6" d="M1133 346C1134.66 346 1136 344.657 1136 343C1136 341.343 1134.66 340 1133 340C1131.34 340 1130 341.343 1130 343C1130 344.657 1131.34 346 1133 346Z" fill="white"/>
<path opacity="0.6" d="M993 309C994.657 309 996 307.657 996 306C996 304.343 994.657 303 993 303C991.343 303 990 304.343 990 306C990 307.657 991.343 309 993 309Z" fill="white"/>
<path opacity="0.6" d="M1072 315C1073.66 315 1075 313.657 1075 312C1075 310.343 1073.66 309 1072 309C1070.34 309 1069 310.343 1069 312C1069 313.657 1070.34 315 1072 315Z" fill="white"/>
<path opacity="0.6" d="M1072 315C1073.66 315 1075 313.657 1075 312C1075 310.343 1073.66 309 1072 309C1070.34 309 1069 310.343 1069 312C1069 313.657 1070.34 315 1072 315Z" fill="white"/>
<path opacity="0.6" d="M374 687C375.657 687 377 685.657 377 684C377 682.343 375.657 681 374 681C372.343 681 371 682.343 371 684C371 685.657 372.343 687 374 687Z" fill="white"/>
<path opacity="0.6" d="M417 589C418.657 589 420 587.657 420 586C420 584.343 418.657 583 417 583C415.343 583 414 584.343 414 586C414 587.657 415.343 589 417 589Z" fill="white"/>
<path opacity="0.6" d="M277 552C278.657 552 280 550.657 280 549C280 547.343 278.657 546 277 546C275.343 546 274 547.343 274 549C274 550.657 275.343 552 277 552Z" fill="white"/>
<path opacity="0.6" d="M356 558C357.657 558 359 556.657 359 555C359 553.343 357.657 552 356 552C354.343 552 353 553.343 353 555C353 556.657 354.343 558 356 558Z" fill="white"/>
<path opacity="0.6" d="M633 223C634.657 223 636 221.657 636 220C636 218.343 634.657 217 633 217C631.343 217 630 218.343 630 220C630 221.657 631.343 223 633 223Z" fill="white"/>
<path opacity="0.6" d="M676 125C677.657 125 679 123.657 679 122C679 120.343 677.657 119 676 119C674.343 119 673 120.343 673 122C673 123.657 674.343 125 676 125Z" fill="white"/>
<path opacity="0.6" d="M536 88C537.657 88 539 86.6569 539 85C539 83.3431 537.657 82 536 82C534.343 82 533 83.3431 533 85C533 86.6569 534.343 88 536 88Z" fill="white"/>
<path opacity="0.6" d="M615 94C616.657 94 618 92.6569 618 91C618 89.3431 616.657 88 615 88C613.343 88 612 89.3431 612 91C612 92.6569 613.343 94 615 94Z" fill="white"/>
<path opacity="0.2" d="M1198 148C1199.66 148 1201 146.657 1201 145C1201 143.343 1199.66 142 1198 142C1196.34 142 1195 143.343 1195 145C1195 146.657 1196.34 148 1198 148Z" fill="white"/>
<path opacity="0.2" d="M1312 123C1313.66 123 1315 121.657 1315 120C1315 118.343 1313.66 117 1312 117C1310.34 117 1309 118.343 1309 120C1309 121.657 1310.34 123 1312 123Z" fill="white"/>
<path opacity="0.2" d="M1323 235C1324.66 235 1326 233.657 1326 232C1326 230.343 1324.66 229 1323 229C1321.34 229 1320 230.343 1320 232C1320 233.657 1321.34 235 1323 235Z" fill="white"/>
<path opacity="0.6" d="M26 184C27.6568 184 29 182.657 29 181C29 179.343 27.6568 178 26 178C24.3431 178 23 179.343 23 181C23 182.657 24.3431 184 26 184Z" fill="white"/>
<path opacity="0.2" d="M502 513C503.657 513 505 511.657 505 510C505 508.343 503.657 507 502 507C500.343 507 499 508.343 499 510C499 511.657 500.343 513 502 513Z" fill="white"/>
<path opacity="0.2" d="M57 181C58.6569 181 60 179.657 60 178C60 176.343 58.6569 175 57 175C55.3431 175 54 176.343 54 178C54 179.657 55.3431 181 57 181Z" fill="white"/>
<path opacity="0.2" d="M383 133C384.657 133 386 131.657 386 130C386 128.343 384.657 127 383 127C381.343 127 380 128.343 380 130C380 131.657 381.343 133 383 133Z" fill="white"/>
<path opacity="0.2" d="M448 191C449.657 191 451 189.657 451 188C451 186.343 449.657 185 448 185C446.343 185 445 186.343 445 188C445 189.657 446.343 191 448 191Z" fill="white"/>
<path opacity="0.6" d="M131 470C132.657 470 134 468.657 134 467C134 465.343 132.657 464 131 464C129.343 464 128 465.343 128 467C128 468.657 129.343 470 131 470Z" fill="white"/>
<path opacity="0.2" d="M946 776C947.657 776 949 774.657 949 773C949 771.343 947.657 770 946 770C944.343 770 943 771.343 943 773C943 774.657 944.343 776 946 776Z" fill="white"/>
<path opacity="0.2" d="M714 524C715.657 524 717 522.657 717 521C717 519.343 715.657 518 714 518C712.343 518 711 519.343 711 521C711 522.657 712.343 524 714 524Z" fill="white"/>
<path opacity="0.2" d="M828 499C829.657 499 831 497.657 831 496C831 494.343 829.657 493 828 493C826.343 493 825 494.343 825 496C825 497.657 826.343 499 828 499Z" fill="white"/>
<path opacity="0.2" d="M893 557C894.657 557 896 555.657 896 554C896 552.343 894.657 551 893 551C891.343 551 890 552.343 890 554C890 555.657 891.343 557 893 557Z" fill="white"/>
<circle cx="705" cy="763" r="5" fill="white"/>
<path opacity="0.6" d="M626 479C627.657 479 629 477.657 629 476C629 474.343 627.657 473 626 473C624.343 473 623 474.343 623 476C623 477.657 624.343 479 626 479Z" fill="white"/>
<path opacity="0.2" d="M386.222 517.031C386.133 515.377 384.719 514.109 383.064 514.198C381.41 514.288 380.141 515.702 380.231 517.357C380.321 519.011 381.735 520.279 383.389 520.19C385.044 520.1 386.312 518.686 386.222 517.031Z" fill="white"/>
<path opacity="0.2" d="M643.86 577.156C643.77 575.502 642.356 574.233 640.702 574.323C639.047 574.413 637.779 575.827 637.869 577.481C637.958 579.136 639.372 580.404 641.027 580.314C642.681 580.224 643.95 578.81 643.86 577.156Z" fill="white"/>
<path opacity="0.2" d="M744.257 710.911C744.167 709.257 742.753 707.988 741.098 708.078C739.444 708.168 738.176 709.582 738.266 711.236C738.355 712.891 739.769 714.159 741.424 714.069C743.078 713.98 744.346 712.566 744.257 710.911Z" fill="white"/>
<path opacity="0.2" d="M860.51 546.369C860.42 544.714 859.006 543.446 857.351 543.536C855.697 543.625 854.429 545.039 854.518 546.694C854.608 548.348 856.022 549.617 857.677 549.527C859.331 549.437 860.599 548.023 860.51 546.369Z" fill="white"/>
<path opacity="0.2" d="M836.541 289.29C836.451 287.635 835.037 286.367 833.383 286.457C831.728 286.547 830.46 287.961 830.55 289.615C830.64 291.269 832.054 292.538 833.708 292.448C835.362 292.358 836.631 290.944 836.541 289.29Z" fill="white"/>
<path opacity="0.2" d="M670.124 120.061C670.034 118.406 668.62 117.138 666.966 117.228C665.312 117.317 664.043 118.731 664.133 120.386C664.223 122.04 665.637 123.309 667.291 123.219C668.946 123.129 670.214 121.715 670.124 120.061Z" fill="white"/>
<path opacity="0.2" d="M489.154 277.996C489.064 276.341 487.65 275.073 485.996 275.163C484.341 275.252 483.073 276.666 483.163 278.321C483.252 279.975 484.666 281.244 486.321 281.154C487.975 281.064 489.244 279.65 489.154 277.996Z" fill="white"/>
<path opacity="0.2" d="M487.441 223.113C487.351 221.459 485.937 220.191 484.283 220.28C482.628 220.37 481.36 221.784 481.45 223.439C481.54 225.093 482.954 226.361 484.608 226.272C486.263 226.182 487.531 224.768 487.441 223.113Z" fill="white"/>
<path opacity="0.6" d="M1312.15 460.996C1312.06 459.341 1310.65 458.073 1309 458.163C1307.34 458.252 1306.07 459.666 1306.16 461.321C1306.25 462.975 1307.67 464.244 1309.32 464.154C1310.98 464.064 1312.24 462.65 1312.15 460.996Z" fill="white"/>
<path opacity="0.6" d="M1125.15 774.996C1125.06 773.341 1123.65 772.073 1122 772.163C1120.34 772.252 1119.07 773.666 1119.16 775.321C1119.25 776.975 1120.67 778.244 1122.32 778.154C1123.98 778.064 1125.24 776.65 1125.15 774.996Z" fill="white"/>
<path opacity="0.6" d="M1286.15 392.996C1286.06 391.341 1284.65 390.073 1283 390.163C1281.34 390.252 1280.07 391.666 1280.16 393.321C1280.25 394.975 1281.67 396.244 1283.32 396.154C1284.98 396.064 1286.24 394.65 1286.15 392.996Z" fill="white"/>
<path opacity="0.6" d="M1090.15 696.996C1090.06 695.341 1088.65 694.073 1087 694.163C1085.34 694.252 1084.07 695.666 1084.16 697.321C1084.25 698.975 1085.67 700.244 1087.32 700.154C1088.98 700.064 1090.24 698.65 1090.15 696.996Z" fill="white"/>
<path opacity="0.6" d="M220.154 78.9956C220.064 77.3412 218.65 76.0728 216.996 76.1626C215.341 76.2524 214.073 77.6664 214.163 79.3208C214.252 80.9752 215.666 82.2436 217.321 82.1538C218.975 82.064 220.244 80.65 220.154 78.9956Z" fill="white"/>
<path opacity="0.6" d="M50.1538 347.996C50.064 346.341 48.65 345.073 46.9956 345.163C45.3412 345.252 44.0728 346.666 44.1626 348.321C44.2524 349.975 45.6664 351.244 47.3208 351.154C48.9752 351.064 50.2436 349.65 50.1538 347.996Z" fill="white"/>
<path opacity="0.6" d="M544.17 105.866C544.08 104.212 542.666 102.944 541.012 103.033C539.357 103.123 538.089 104.537 538.179 106.192C538.268 107.846 539.682 109.114 541.337 109.025C542.991 108.935 544.26 107.521 544.17 105.866Z" fill="white"/>
<path opacity="0.6" d="M545.879 26.6573C545.79 25.0029 544.376 23.7345 542.721 23.8243C541.067 23.9141 539.798 25.3281 539.888 26.9825C539.978 28.6369 541.392 29.9053 543.046 29.8155C544.701 29.7257 545.969 28.3117 545.879 26.6573Z" fill="white"/>
<path opacity="0.6" d="M342.154 75.9956C342.064 74.3412 340.65 73.0728 338.996 73.1626C337.341 73.2524 336.073 74.6664 336.163 76.3208C336.252 77.9752 337.666 79.2436 339.321 79.1538C340.975 79.064 342.244 77.65 342.154 75.9956Z" fill="white"/>
<path opacity="0.6" d="M955.163 703.469C955.074 701.815 953.66 700.547 952.005 700.636C950.351 700.726 949.082 702.14 949.172 703.795C949.262 705.449 950.676 706.717 952.33 706.628C953.985 706.538 955.253 705.124 955.163 703.469Z" fill="white"/>
<path opacity="0.6" d="M854.977 665.844C854.887 664.19 853.473 662.921 851.819 663.011C850.164 663.101 848.896 664.515 848.986 666.169C849.076 667.824 850.489 669.092 852.144 669.002C853.798 668.912 855.067 667.498 854.977 665.844Z" fill="white"/>
<path opacity="0.6" d="M961.154 469.996C961.064 468.341 959.65 467.073 957.996 467.163C956.341 467.252 955.073 468.666 955.163 470.321C955.252 471.975 956.666 473.244 958.321 473.154C959.975 473.064 961.244 471.65 961.154 469.996Z" fill="white"/>
<path opacity="0.6" d="M827.329 728.435C827.239 726.78 825.825 725.512 824.17 725.602C822.516 725.691 821.248 727.105 821.337 728.76C821.427 730.414 822.841 731.683 824.496 731.593C826.15 731.503 827.418 730.089 827.329 728.435Z" fill="white"/>
<path opacity="0.6" d="M477.808 469.998C477.718 468.344 476.304 467.076 474.65 467.165C472.995 467.255 471.727 468.669 471.817 470.324C471.906 471.978 473.32 473.246 474.975 473.157C476.629 473.067 477.898 471.653 477.808 469.998Z" fill="white"/>
<path opacity="0.6" d="M377.621 432.373C377.532 430.719 376.118 429.45 374.463 429.54C372.809 429.63 371.54 431.044 371.63 432.698C371.72 434.353 373.134 435.621 374.788 435.531C376.443 435.441 377.711 434.027 377.621 432.373Z" fill="white"/>
<path opacity="0.6" d="M348.264 574.173C348.174 572.518 346.76 571.25 345.105 571.34C343.451 571.429 342.183 572.843 342.272 574.498C342.362 576.152 343.776 577.421 345.431 577.331C347.085 577.241 348.353 575.827 348.264 574.173Z" fill="white"/>
<path opacity="0.6" d="M349.973 494.964C349.883 493.309 348.469 492.041 346.815 492.131C345.16 492.22 343.892 493.634 343.982 495.289C344.072 496.943 345.486 498.212 347.14 498.122C348.794 498.032 350.063 496.618 349.973 494.964Z" fill="white"/>
<path opacity="0.2" d="M572.154 186.996C572.064 185.341 570.65 184.073 568.996 184.163C567.341 184.252 566.073 185.666 566.163 187.321C566.252 188.975 567.666 190.244 569.321 190.154C570.975 190.064 572.244 188.65 572.154 186.996Z" fill="white"/>
<path opacity="0.2" d="M704.154 191.996C704.064 190.341 702.65 189.073 700.996 189.163C699.341 189.252 698.073 190.666 698.163 192.321C698.252 193.975 699.666 195.244 701.321 195.154C702.975 195.064 704.244 193.65 704.154 191.996Z" fill="white"/>
<path opacity="0.2" d="M936.154 32.9956C936.064 31.3412 934.65 30.0728 932.996 30.1626C931.341 30.2524 930.073 31.6664 930.163 33.3208C930.252 34.9752 931.666 36.2436 933.321 36.1538C934.975 36.064 936.244 34.65 936.154 32.9956Z" fill="white"/>
<path opacity="0.6" d="M82.1538 780.996C82.064 779.341 80.65 778.073 78.9956 778.163C77.3412 778.252 76.0728 779.666 76.1626 781.321C76.2524 782.975 77.6664 784.244 79.3208 784.154C80.9752 784.064 82.2436 782.65 82.1538 780.996Z" fill="white"/>
<path opacity="0.2" d="M774.482 585.088C774.392 583.434 772.978 582.165 771.323 582.255C769.669 582.345 768.401 583.759 768.49 585.413C768.58 587.068 769.994 588.336 771.649 588.246C773.303 588.156 774.571 586.743 774.482 585.088Z" fill="white"/>
<path opacity="0.2" d="M401.49 724.509C401.4 722.854 399.986 721.586 398.332 721.676C396.677 721.766 395.409 723.18 395.499 724.834C395.588 726.488 397.002 727.757 398.657 727.667C400.311 727.577 401.58 726.163 401.49 724.509Z" fill="white"/>
<path opacity="0.2" d="M455.882 656.461C455.792 654.806 454.378 653.538 452.723 653.628C451.069 653.718 449.801 655.132 449.891 656.786C449.98 658.44 451.394 659.709 453.049 659.619C454.703 659.529 455.971 658.115 455.882 656.461Z" fill="white"/>
<path opacity="0.2" d="M1115.83 120.905C1115.74 119.251 1114.32 117.983 1112.67 118.072C1111.01 118.162 1109.74 119.576 1109.83 121.231C1109.92 122.885 1111.34 124.153 1112.99 124.064C1114.65 123.974 1115.91 122.56 1115.83 120.905Z" fill="white"/>
<path opacity="0.2" d="M773.975 372.804C773.886 371.149 772.472 369.881 770.817 369.971C769.163 370.06 767.894 371.474 767.984 373.129C768.074 374.783 769.488 376.052 771.142 375.962C772.797 375.872 774.065 374.458 773.975 372.804Z" fill="white"/>
<path opacity="0.2" d="M742.833 260.326C742.744 258.672 741.33 257.403 739.675 257.493C738.021 257.583 736.752 258.997 736.842 260.651C736.932 262.306 738.346 263.574 740 263.484C741.655 263.394 742.923 261.98 742.833 260.326Z" fill="white"/>
<path opacity="0.2" d="M797.225 192.278C797.135 190.624 795.721 189.355 794.067 189.445C792.413 189.535 791.144 190.949 791.234 192.603C791.324 194.258 792.738 195.526 794.392 195.436C796.047 195.346 797.315 193.932 797.225 192.278Z" fill="white"/>
<circle cx="1064.93" cy="271.886" r="5" transform="rotate(-93.1069 1064.93 271.886)" fill="white"/>
<path opacity="0.2" d="M620 289C621.657 289 623 287.657 623 286C623 284.343 621.657 283 620 283C618.343 283 617 284.343 617 286C617 287.657 618.343 289 620 289Z" fill="white"/>
<path opacity="0.2" d="M546 543C547.657 543 549 541.657 549 540C549 538.343 547.657 537 546 537C544.343 537 543 538.343 543 540C543 541.657 544.343 543 546 543Z" fill="white"/>
<path opacity="0.2" d="M632 446C633.657 446 635 444.657 635 443C635 441.343 633.657 440 632 440C630.343 440 629 441.343 629 443C629 444.657 630.343 446 632 446Z" fill="white"/>
<path opacity="0.2" d="M581 502C582.657 502 584 500.657 584 499C584 497.343 582.657 496 581 496C579.343 496 578 497.343 578 499C578 500.657 579.343 502 581 502Z" fill="white"/>
<path opacity="0.2" d="M641 523C642.657 523 644 521.657 644 520C644 518.343 642.657 517 641 517C639.343 517 638 518.343 638 520C638 521.657 639.343 523 641 523Z" fill="white"/>
<path opacity="0.2" d="M594 543C595.657 543 597 541.657 597 540C597 538.343 595.657 537 594 537C592.343 537 591 538.343 591 540C591 541.657 592.343 543 594 543Z" fill="white"/>
<path opacity="0.2" d="M407 636C408.657 636 410 634.657 410 633C410 631.343 408.657 630 407 630C405.343 630 404 631.343 404 633C404 634.657 405.343 636 407 636Z" fill="white"/>
<path opacity="0.2" d="M565 761C566.657 761 568 759.657 568 758C568 756.343 566.657 755 565 755C563.343 755 562 756.343 562 758C562 759.657 563.343 761 565 761Z" fill="white"/>
<path opacity="0.2" d="M823 751C824.657 751 826 749.657 826 748C826 746.343 824.657 745 823 745C821.343 745 820 746.343 820 748C820 749.657 821.343 751 823 751Z" fill="white"/>
<path opacity="0.2" d="M1001 594C1002.66 594 1004 592.657 1004 591C1004 589.343 1002.66 588 1001 588C999.343 588 998 589.343 998 591C998 592.657 999.343 594 1001 594Z" fill="white"/>
<path opacity="0.2" d="M1177 366C1178.66 366 1180 364.657 1180 363C1180 361.343 1178.66 360 1177 360C1175.34 360 1174 361.343 1174 363C1174 364.657 1175.34 366 1177 366Z" fill="white"/>
<path opacity="0.2" d="M908 406C909.657 406 911 404.657 911 403C911 401.343 909.657 400 908 400C906.343 400 905 401.343 905 403C905 404.657 906.343 406 908 406Z" fill="white"/>
<path opacity="0.6" d="M186 381C187.657 381 189 379.657 189 378C189 376.343 187.657 375 186 375C184.343 375 183 376.343 183 378C183 379.657 184.343 381 186 381Z" fill="white"/>
<path opacity="0.6" d="M230 305C231.657 305 233 303.657 233 302C233 300.343 231.657 299 230 299C228.343 299 227 300.343 227 302C227 303.657 228.343 305 230 305Z" fill="white"/>
<path opacity="0.6" d="M226 335C227.657 335 229 333.657 229 332C229 330.343 227.657 329 226 329C224.343 329 223 330.343 223 332C223 333.657 224.343 335 226 335Z" fill="white"/>
<path opacity="0.6" d="M85 266C86.6568 266 88 264.657 88 263C88 261.343 86.6568 260 85 260C83.3431 260 82 261.343 82 263C82 264.657 83.3431 266 85 266Z" fill="white"/>
<path opacity="0.6" d="M1119 604C1120.66 604 1122 602.657 1122 601C1122 599.343 1120.66 598 1119 598C1117.34 598 1116 599.343 1116 601C1116 602.657 1117.34 604 1119 604Z" fill="white"/>
<path opacity="0.6" d="M1162 506C1163.66 506 1165 504.657 1165 503C1165 501.343 1163.66 500 1162 500C1160.34 500 1159 501.343 1159 503C1159 504.657 1160.34 506 1162 506Z" fill="white"/>
<path opacity="0.6" d="M1022 469C1023.66 469 1025 467.657 1025 466C1025 464.343 1023.66 463 1022 463C1020.34 463 1019 464.343 1019 466C1019 467.657 1020.34 469 1022 469Z" fill="white"/>
<path opacity="0.6" d="M1101 475C1102.66 475 1104 473.657 1104 472C1104 470.343 1102.66 469 1101 469C1099.34 469 1098 470.343 1098 472C1098 473.657 1099.34 475 1101 475Z" fill="white"/>
<path opacity="0.6" d="M1101 475C1102.66 475 1104 473.657 1104 472C1104 470.343 1102.66 469 1101 469C1099.34 469 1098 470.343 1098 472C1098 473.657 1099.34 475 1101 475Z" fill="white"/>
<path opacity="0.6" d="M996 767C997.657 767 999 765.657 999 764C999 762.343 997.657 761 996 761C994.343 761 993 762.343 993 764C993 765.657 994.343 767 996 767Z" fill="white"/>
<path opacity="0.6" d="M446 749C447.657 749 449 747.657 449 746C449 744.343 447.657 743 446 743C444.343 743 443 744.343 443 746C443 747.657 444.343 749 446 749Z" fill="white"/>
<path opacity="0.6" d="M306 712C307.657 712 309 710.657 309 709C309 707.343 307.657 706 306 706C304.343 706 303 707.343 303 709C303 710.657 304.343 712 306 712Z" fill="white"/>
<path opacity="0.6" d="M385 718C386.657 718 388 716.657 388 715C388 713.343 386.657 712 385 712C383.343 712 382 713.343 382 715C382 716.657 383.343 718 385 718Z" fill="white"/>
<path opacity="0.6" d="M662 383C663.657 383 665 381.657 665 380C665 378.343 663.657 377 662 377C660.343 377 659 378.343 659 380C659 381.657 660.343 383 662 383Z" fill="white"/>
<path opacity="0.6" d="M600 455C601.657 455 603 453.657 603 452C603 450.343 601.657 449 600 449C598.343 449 597 450.343 597 452C597 453.657 598.343 455 600 455Z" fill="white"/>
<path opacity="0.6" d="M659 489C660.657 489 662 487.657 662 486C662 484.343 660.657 483 659 483C657.343 483 656 484.343 656 486C656 487.657 657.343 489 659 489Z" fill="white"/>
<path opacity="0.2" d="M746 720C747.657 720 749 718.657 749 717C749 715.343 747.657 714 746 714C744.343 714 743 715.343 743 717C743 718.657 744.343 720 746 720Z" fill="white"/>
<path opacity="0.6" d="M658 675C659.657 675 661 673.657 661 672C661 670.343 659.657 669 658 669C656.343 669 655 670.343 655 672C655 673.657 656.343 675 658 675Z" fill="white"/>
<path opacity="0.2" d="M675.86 773.156C675.77 771.502 674.356 770.233 672.702 770.323C671.047 770.413 669.779 771.827 669.869 773.481C669.958 775.136 671.372 776.404 673.027 776.314C674.681 776.224 675.95 774.81 675.86 773.156Z" fill="white"/>
<path opacity="0.2" d="M578 739C579.657 739 581 737.657 581 736C581 734.343 579.657 733 578 733C576.343 733 575 734.343 575 736C575 737.657 576.343 739 578 739Z" fill="white"/>
<path opacity="0.2" d="M664 642C665.657 642 667 640.657 667 639C667 637.343 665.657 636 664 636C662.343 636 661 637.343 661 639C661 640.657 662.343 642 664 642Z" fill="white"/>
<path opacity="0.2" d="M613 698C614.657 698 616 696.657 616 695C616 693.343 614.657 692 613 692C611.343 692 610 693.343 610 695C610 696.657 611.343 698 613 698Z" fill="white"/>
<path opacity="0.2" d="M673 719C674.657 719 676 717.657 676 716C676 714.343 674.657 713 673 713C671.343 713 670 714.343 670 716C670 717.657 671.343 719 673 719Z" fill="white"/>
<path opacity="0.2" d="M626 739C627.657 739 629 737.657 629 736C629 734.343 627.657 733 626 733C624.343 733 623 734.343 623 736C623 737.657 624.343 739 626 739Z" fill="white"/>
<path opacity="0.6" d="M632 651C633.657 651 635 649.657 635 648C635 646.343 633.657 645 632 645C630.343 645 629 646.343 629 648C629 649.657 630.343 651 632 651Z" fill="white"/>
<path opacity="0.6" d="M691 685C692.657 685 694 683.657 694 682C694 680.343 692.657 679 691 679C689.343 679 688 680.343 688 682C688 683.657 689.343 685 691 685Z" fill="white"/>
<path opacity="0.2" d="M1353.74 54.8205C1354.78 53.5362 1354.59 51.6465 1353.31 50.5997C1352.02 49.5529 1350.13 49.7455 1349.09 51.0298C1348.04 52.3141 1348.23 54.2038 1349.52 55.2506C1350.8 56.2973 1352.69 56.1048 1353.74 54.8205Z" fill="white"/>
<path opacity="0.6" d="M1263.26 94.6031C1264.31 93.3188 1264.11 91.4291 1262.83 90.3823C1261.54 89.3356 1259.65 89.5281 1258.61 90.8124C1257.56 92.0967 1257.75 93.9864 1259.04 95.0332C1260.32 96.08 1262.21 95.8874 1263.26 94.6031Z" fill="white"/>
<path opacity="0.2" d="M1350.63 142.772C1349.29 141.797 1347.41 142.092 1346.44 143.431C1345.46 144.77 1345.76 146.646 1347.09 147.622C1348.43 148.598 1350.31 148.303 1351.29 146.964C1352.26 145.625 1351.97 143.748 1350.63 142.772Z" fill="white"/>
<path opacity="0.2" d="M1262.33 197.049C1263.37 195.765 1263.18 193.875 1261.9 192.828C1260.61 191.781 1258.72 191.974 1257.67 193.258C1256.63 194.542 1256.82 196.432 1258.1 197.479C1259.39 198.526 1261.28 198.333 1262.33 197.049Z" fill="white"/>
<path opacity="0.2" d="M1241.47 69.1034C1242.52 67.8191 1242.32 65.9294 1241.04 64.8827C1239.76 63.8359 1237.87 64.0284 1236.82 65.3127C1235.77 66.597 1235.96 68.4868 1237.25 69.5335C1238.53 70.5803 1240.42 70.3877 1241.47 69.1034Z" fill="white"/>
<path opacity="0.2" d="M1252.66 144.016C1253.7 142.731 1253.51 140.842 1252.23 139.795C1250.94 138.748 1249.05 138.941 1248.01 140.225C1246.96 141.509 1247.15 143.399 1248.44 144.446C1249.72 145.493 1251.61 145.3 1252.66 144.016Z" fill="white"/>
<path opacity="0.2" d="M1306.84 110.774C1307.89 109.49 1307.7 107.6 1306.41 106.554C1305.13 105.507 1303.24 105.699 1302.19 106.984C1301.14 108.268 1301.34 110.158 1302.62 111.204C1303.91 112.251 1305.79 112.059 1306.84 110.774Z" fill="white"/>
<path opacity="0.2" d="M1292.65 159.842C1293.7 158.558 1293.51 156.668 1292.22 155.621C1290.94 154.574 1289.05 154.767 1288 156.051C1286.95 157.335 1287.15 159.225 1288.43 160.272C1289.71 161.319 1291.6 161.126 1292.65 159.842Z" fill="white"/>
<path opacity="0.6" d="M1228.23 99.5941C1229.28 98.3098 1229.08 96.4201 1227.8 95.3734C1226.51 94.3266 1224.62 94.5191 1223.58 95.8034C1222.53 97.0877 1222.72 98.9775 1224.01 100.024C1225.29 101.071 1227.18 100.878 1228.23 99.5941Z" fill="white"/>
<path opacity="0.6" d="M1291.86 75.3411C1292.91 74.0568 1292.71 72.1671 1291.43 71.1203C1290.14 70.0736 1288.25 70.2661 1287.21 71.5504C1286.16 72.8347 1286.35 74.7244 1287.64 75.7712C1288.92 76.818 1290.81 76.6254 1291.86 75.3411Z" fill="white"/>
<path opacity="0.2" d="M1224 769C1225.66 769 1227 767.657 1227 766C1227 764.343 1225.66 763 1224 763C1222.34 763 1221 764.343 1221 766C1221 767.657 1222.34 769 1224 769Z" fill="white"/>
<path opacity="0.6" d="M1136 724C1137.66 724 1139 722.657 1139 721C1139 719.343 1137.66 718 1136 718C1134.34 718 1133 719.343 1133 721C1133 722.657 1134.34 724 1136 724Z" fill="white"/>
<path opacity="0.2" d="M904.154 615.996C904.064 614.341 902.65 613.073 900.996 613.163C899.341 613.252 898.073 614.666 898.163 616.321C898.252 617.975 899.666 619.244 901.321 619.154C902.975 619.064 904.244 617.65 904.154 615.996Z" fill="white"/>
<path opacity="0.2" d="M1056 788C1057.66 788 1059 786.657 1059 785C1059 783.343 1057.66 782 1056 782C1054.34 782 1053 783.343 1053 785C1053 786.657 1054.34 788 1056 788Z" fill="white"/>
<path opacity="0.2" d="M1142 691C1143.66 691 1145 689.657 1145 688C1145 686.343 1143.66 685 1142 685C1140.34 685 1139 686.343 1139 688C1139 689.657 1140.34 691 1142 691Z" fill="white"/>
<path opacity="0.2" d="M1091 747C1092.66 747 1094 745.657 1094 744C1094 742.343 1092.66 741 1091 741C1089.34 741 1088 742.343 1088 744C1088 745.657 1089.34 747 1091 747Z" fill="white"/>
<path opacity="0.2" d="M1151 768C1152.66 768 1154 766.657 1154 765C1154 763.343 1152.66 762 1151 762C1149.34 762 1148 763.343 1148 765C1148 766.657 1149.34 768 1151 768Z" fill="white"/>
<path opacity="0.2" d="M1104 788C1105.66 788 1107 786.657 1107 785C1107 783.343 1105.66 782 1104 782C1102.34 782 1101 783.343 1101 785C1101 786.657 1102.34 788 1104 788Z" fill="white"/>
<path opacity="0.6" d="M1110 700C1111.66 700 1113 698.657 1113 697C1113 695.343 1111.66 694 1110 694C1108.34 694 1107 695.343 1107 697C1107 698.657 1108.34 700 1110 700Z" fill="white"/>
<path opacity="0.6" d="M1169 734C1170.66 734 1172 732.657 1172 731C1172 729.343 1170.66 728 1169 728C1167.34 728 1166 729.343 1166 731C1166 732.657 1167.34 734 1169 734Z" fill="white"/>
<path opacity="0.2" d="M206 736C207.657 736 209 734.657 209 733C209 731.343 207.657 730 206 730C204.343 730 203 731.343 203 733C203 734.657 204.343 736 206 736Z" fill="white"/>
<path opacity="0.6" d="M118 691C119.657 691 121 689.657 121 688C121 686.343 119.657 685 118 685C116.343 685 115 686.343 115 688C115 689.657 116.343 691 118 691Z" fill="white"/>
<path opacity="0.2" d="M136.154 784.996C136.064 783.341 134.65 782.073 132.996 782.163C131.341 782.252 130.073 783.666 130.163 785.321C130.252 786.975 131.666 788.244 133.321 788.154C134.975 788.064 136.244 786.65 136.154 784.996Z" fill="white"/>
<path opacity="0.2" d="M38 755C39.6569 755 41 753.657 41 752C41 750.343 39.6569 749 38 749C36.3431 749 35 750.343 35 752C35 753.657 36.3431 755 38 755Z" fill="white"/>
<path opacity="0.2" d="M124 658C125.657 658 127 656.657 127 655C127 653.343 125.657 652 124 652C122.343 652 121 653.343 121 655C121 656.657 122.343 658 124 658Z" fill="white"/>
<path opacity="0.2" d="M73 714C74.6569 714 76 712.657 76 711C76 709.343 74.6569 708 73 708C71.3431 708 70 709.343 70 711C70 712.657 71.3431 714 73 714Z" fill="white"/>
<path opacity="0.2" d="M133 735C134.657 735 136 733.657 136 732C136 730.343 134.657 729 133 729C131.343 729 130 730.343 130 732C130 733.657 131.343 735 133 735Z" fill="white"/>
<path opacity="0.2" d="M86 755C87.6569 755 89 753.657 89 752C89 750.343 87.6569 749 86 749C84.3431 749 83 750.343 83 752C83 753.657 84.3431 755 86 755Z" fill="white"/>
<path opacity="0.6" d="M92 667C93.6568 667 95 665.657 95 664C95 662.343 93.6568 661 92 661C90.3431 661 89 662.343 89 664C89 665.657 90.3431 667 92 667Z" fill="white"/>
<path opacity="0.6" d="M151 701C152.657 701 154 699.657 154 698C154 696.343 152.657 695 151 695C149.343 695 148 696.343 148 698C148 699.657 149.343 701 151 701Z" fill="white"/>
<path opacity="0.2" d="M401 202C402.657 202 404 200.657 404 199C404 197.343 402.657 196 401 196C399.343 196 398 197.343 398 199C398 200.657 399.343 202 401 202Z" fill="white"/>
<path opacity="0.6" d="M313 157C314.657 157 316 155.657 316 154C316 152.343 314.657 151 313 151C311.343 151 310 152.343 310 154C310 155.657 311.343 157 313 157Z" fill="white"/>
<path opacity="0.2" d="M330.86 255.156C330.77 253.502 329.356 252.233 327.702 252.323C326.047 252.413 324.779 253.827 324.869 255.481C324.958 257.136 326.372 258.404 328.027 258.314C329.681 258.224 330.95 256.81 330.86 255.156Z" fill="white"/>
<path opacity="0.2" d="M233 221C234.657 221 236 219.657 236 218C236 216.343 234.657 215 233 215C231.343 215 230 216.343 230 218C230 219.657 231.343 221 233 221Z" fill="white"/>
<path opacity="0.2" d="M319 124C320.657 124 322 122.657 322 121C322 119.343 320.657 118 319 118C317.343 118 316 119.343 316 121C316 122.657 317.343 124 319 124Z" fill="white"/>
<path opacity="0.2" d="M268 180C269.657 180 271 178.657 271 177C271 175.343 269.657 174 268 174C266.343 174 265 175.343 265 177C265 178.657 266.343 180 268 180Z" fill="white"/>
<path opacity="0.2" d="M328 201C329.657 201 331 199.657 331 198C331 196.343 329.657 195 328 195C326.343 195 325 196.343 325 198C325 199.657 326.343 201 328 201Z" fill="white"/>
<path opacity="0.2" d="M281 221C282.657 221 284 219.657 284 218C284 216.343 282.657 215 281 215C279.343 215 278 216.343 278 218C278 219.657 279.343 221 281 221Z" fill="white"/>
<path opacity="0.6" d="M287 133C288.657 133 290 131.657 290 130C290 128.343 288.657 127 287 127C285.343 127 284 128.343 284 130C284 131.657 285.343 133 287 133Z" fill="white"/>
<path opacity="0.6" d="M346 167C347.657 167 349 165.657 349 164C349 162.343 347.657 161 346 161C344.343 161 343 162.343 343 164C343 165.657 344.343 167 346 167Z" fill="white"/>
<path opacity="0.2" d="M917 108C918.657 108 920 106.657 920 105C920 103.343 918.657 102 917 102C915.343 102 914 103.343 914 105C914 106.657 915.343 108 917 108Z" fill="white"/>
<path opacity="0.6" d="M829 63C830.657 63 832 61.6569 832 60C832 58.3431 830.657 57 829 57C827.343 57 826 58.3431 826 60C826 61.6569 827.343 63 829 63Z" fill="white"/>
<path opacity="0.2" d="M846.86 161.156C846.77 159.502 845.356 158.233 843.702 158.323C842.047 158.413 840.779 159.827 840.869 161.481C840.958 163.136 842.372 164.404 844.027 164.314C845.681 164.224 846.95 162.81 846.86 161.156Z" fill="white"/>
<path opacity="0.2" d="M749 127C750.657 127 752 125.657 752 124C752 122.343 750.657 121 749 121C747.343 121 746 122.343 746 124C746 125.657 747.343 127 749 127Z" fill="white"/>
<path opacity="0.2" d="M835 30C836.657 30 838 28.6569 838 27C838 25.3431 836.657 24 835 24C833.343 24 832 25.3431 832 27C832 28.6569 833.343 30 835 30Z" fill="white"/>
<path opacity="0.2" d="M784 86C785.657 86 787 84.6569 787 83C787 81.3431 785.657 80 784 80C782.343 80 781 81.3431 781 83C781 84.6569 782.343 86 784 86Z" fill="white"/>
<path opacity="0.2" d="M844 107C845.657 107 847 105.657 847 104C847 102.343 845.657 101 844 101C842.343 101 841 102.343 841 104C841 105.657 842.343 107 844 107Z" fill="white"/>
<path opacity="0.2" d="M797 127C798.657 127 800 125.657 800 124C800 122.343 798.657 121 797 121C795.343 121 794 122.343 794 124C794 125.657 795.343 127 797 127Z" fill="white"/>
<path opacity="0.6" d="M803 39C804.657 39 806 37.6569 806 36C806 34.3431 804.657 33 803 33C801.343 33 800 34.3431 800 36C800 37.6569 801.343 39 803 39Z" fill="white"/>
<path opacity="0.6" d="M862 73C863.657 73 865 71.6569 865 70C865 68.3431 863.657 67 862 67C860.343 67 859 68.3431 859 70C859 71.6569 860.343 73 862 73Z" fill="white"/>
<path opacity="0.6" d="M705 285C706.657 285 708 283.657 708 282C708 280.343 706.657 279 705 279C703.343 279 702 280.343 702 282C702 283.657 703.343 285 705 285Z" fill="white"/>
<path opacity="0.6" d="M565 248C566.657 248 568 246.657 568 245C568 243.343 566.657 242 565 242C563.343 242 562 243.343 562 245C562 246.657 563.343 248 565 248Z" fill="white"/>
<path opacity="0.6" d="M644 254C645.657 254 647 252.657 647 251C647 249.343 645.657 248 644 248C642.343 248 641 249.343 641 251C641 252.657 642.343 254 644 254Z" fill="white"/>
<path opacity="0.2" d="M1213 530C1214.66 530 1216 528.657 1216 527C1216 525.343 1214.66 524 1213 524C1211.34 524 1210 525.343 1210 527C1210 528.657 1211.34 530 1213 530Z" fill="white"/>
<path opacity="0.2" d="M1227 308C1228.66 308 1230 306.657 1230 305C1230 303.343 1228.66 302 1227 302C1225.34 302 1224 303.343 1224 305C1224 306.657 1225.34 308 1227 308Z" fill="white"/>
<path opacity="0.2" d="M1341 283C1342.66 283 1344 281.657 1344 280C1344 278.343 1342.66 277 1341 277C1339.34 277 1338 278.343 1338 280C1338 281.657 1339.34 283 1341 283Z" fill="white"/>
<path opacity="0.6" d="M85 88C86.6568 88 88 86.6569 88 85C88 83.3431 86.6568 82 85 82C83.3431 82 82 83.3431 82 85C82 86.6569 83.3431 88 85 88Z" fill="white"/>
<path opacity="0.2" d="M531 673C532.657 673 534 671.657 534 670C534 668.343 532.657 667 531 667C529.343 667 528 668.343 528 670C528 671.657 529.343 673 531 673Z" fill="white"/>
<path opacity="0.2" d="M298 318C299.657 318 301 316.657 301 315C301 313.343 299.657 312 298 312C296.343 312 295 313.343 295 315C295 316.657 296.343 318 298 318Z" fill="white"/>
<path opacity="0.2" d="M412 293C413.657 293 415 291.657 415 290C415 288.343 413.657 287 412 287C410.343 287 409 288.343 409 290C409 291.657 410.343 293 412 293Z" fill="white"/>
<path opacity="0.2" d="M477 351C478.657 351 480 349.657 480 348C480 346.343 478.657 345 477 345C475.343 345 474 346.343 474 348C474 349.657 475.343 351 477 351Z" fill="white"/>
<path opacity="0.6" d="M160 630C161.657 630 163 628.657 163 627C163 625.343 161.657 624 160 624C158.343 624 157 625.343 157 627C157 628.657 158.343 630 160 630Z" fill="white"/>
<path opacity="0.2" d="M893 747C894.657 747 896 745.657 896 744C896 742.343 894.657 741 893 741C891.343 741 890 742.343 890 744C890 745.657 891.343 747 893 747Z" fill="white"/>
<path opacity="0.2" d="M743 684C744.657 684 746 682.657 746 681C746 679.343 744.657 678 743 678C741.343 678 740 679.343 740 681C740 682.657 741.343 684 743 684Z" fill="white"/>
<path opacity="0.2" d="M928.885 187.215C929.536 185.691 928.829 183.928 927.305 183.277C925.782 182.626 924.019 183.334 923.368 184.857C922.717 186.381 923.424 188.144 924.948 188.795C926.471 189.446 928.234 188.738 928.885 187.215Z" fill="white"/>
<path opacity="0.2" d="M949.338 78.6608C947.781 78.0934 946.059 78.8953 945.492 80.4519C944.924 82.0086 945.726 83.7305 947.283 84.2979C948.839 84.8654 950.561 84.0635 951.129 82.5068C951.696 80.9502 950.894 79.2283 949.338 78.6608Z" fill="white"/>
<path opacity="0.2" d="M1087.41 223.412C1088.06 221.888 1087.36 220.125 1085.83 219.474C1084.31 218.823 1082.55 219.531 1081.89 221.054C1081.24 222.578 1081.95 224.341 1083.47 224.992C1085 225.643 1086.76 224.936 1087.41 223.412Z" fill="white"/>
<path opacity="0.2" d="M1120.83 40.859C1121.48 39.3354 1120.77 37.5726 1119.25 36.9216C1117.72 36.2706 1115.96 36.978 1115.31 38.5016C1114.66 40.0252 1115.36 41.7881 1116.89 42.4391C1118.41 43.0901 1120.17 42.3827 1120.83 40.859Z" fill="white"/>
<path opacity="0.6" d="M1044.87 104.101C1045.52 102.578 1044.81 100.815 1043.29 100.164C1041.77 99.5128 1040 100.22 1039.35 101.744C1038.7 103.267 1039.41 105.03 1040.93 105.681C1042.45 106.332 1044.22 105.625 1044.87 104.101Z" fill="white"/>
<path opacity="0.2" d="M1142.15 126.244C1140.59 125.676 1138.87 126.478 1138.3 128.035C1137.73 129.592 1138.54 131.314 1140.09 131.881C1141.65 132.448 1143.37 131.647 1143.94 130.09C1144.51 128.533 1143.7 126.811 1142.15 126.244Z" fill="white"/>
<path opacity="0.2" d="M1072.29 202.813C1072.94 201.29 1072.23 199.527 1070.71 198.876C1069.19 198.225 1067.42 198.932 1066.77 200.456C1066.12 201.98 1066.83 203.743 1068.35 204.394C1069.88 205.044 1071.64 204.337 1072.29 202.813Z" fill="white"/>
<path opacity="0.2" d="M1016.88 85.6178C1017.53 84.0942 1016.82 82.3314 1015.3 81.6804C1013.78 81.0294 1012.01 81.7368 1011.36 83.2604C1010.71 84.784 1011.42 86.5469 1012.94 87.1979C1014.47 87.8488 1016.23 87.1414 1016.88 85.6178Z" fill="white"/>
<path opacity="0.2" d="M1048.34 154.519C1048.99 152.995 1048.28 151.233 1046.76 150.582C1045.23 149.931 1043.47 150.638 1042.82 152.162C1042.17 153.685 1042.88 155.448 1044.4 156.099C1045.92 156.75 1047.69 156.043 1048.34 154.519Z" fill="white"/>
<path opacity="0.2" d="M1091.15 158.674C1091.8 157.15 1091.09 155.387 1089.57 154.736C1088.05 154.085 1086.28 154.793 1085.63 156.316C1084.98 157.84 1085.69 159.603 1087.21 160.254C1088.73 160.905 1090.5 160.197 1091.15 158.674Z" fill="white"/>
<path opacity="0.6" d="M1012.58 118.58C1013.23 117.057 1012.53 115.294 1011 114.643C1009.48 113.992 1007.72 114.699 1007.07 116.223C1006.41 117.747 1007.12 119.51 1008.65 120.16C1010.17 120.811 1011.93 120.104 1012.58 118.58Z" fill="white"/>
<path opacity="0.6" d="M1067.03 77.6842C1067.68 76.1605 1066.97 74.3977 1065.45 73.7467C1063.93 73.0957 1062.16 73.8031 1061.51 75.3267C1060.86 76.8503 1061.57 78.6132 1063.09 79.2642C1064.62 79.9152 1066.38 79.2078 1067.03 77.6842Z" fill="white"/>
<path opacity="0.2" d="M993.13 220.102C993.781 218.578 993.074 216.815 991.55 216.164C990.027 215.513 988.264 216.221 987.613 217.744C986.962 219.268 987.669 221.031 989.193 221.682C990.717 222.333 992.479 221.625 993.13 220.102Z" fill="white"/>
<path opacity="0.2" d="M1086.54 29.4732C1087.19 27.9495 1086.49 26.1867 1084.96 25.5357C1083.44 24.8847 1081.68 25.5921 1081.02 27.1157C1080.37 28.6393 1081.08 30.4022 1082.6 31.0532C1084.13 31.7042 1085.89 30.9968 1086.54 29.4732Z" fill="white"/>
<path opacity="0.2" d="M1244 362.84C1245.66 362.84 1247 361.496 1247 359.84C1247 358.183 1245.66 356.84 1244 356.84C1242.34 356.84 1241 358.183 1241 359.84C1241 361.496 1242.34 362.84 1244 362.84Z" fill="white"/>
<path opacity="0.2" d="M1351.86 338.996C1351.77 337.341 1350.36 336.073 1348.7 336.163C1347.05 336.252 1345.78 337.666 1345.87 339.321C1345.96 340.975 1347.37 342.244 1349.03 342.154C1350.68 342.064 1351.95 340.65 1351.86 338.996Z" fill="white"/>
<path opacity="0.2" d="M1273 522.84C1274.66 522.84 1276 521.496 1276 519.84C1276 518.183 1274.66 516.84 1273 516.84C1271.34 516.84 1270 518.183 1270 519.84C1270 521.496 1271.34 522.84 1273 522.84Z" fill="white"/>
<path opacity="0.2" d="M905 328C906.657 328 908 326.657 908 325C908 323.343 906.657 322 905 322C903.343 322 902 323.343 902 325C902 326.657 903.343 328 905 328Z" fill="white"/>
<path opacity="0.6" d="M1366 436.84C1367.66 436.84 1369 435.496 1369 433.84C1369 432.183 1367.66 430.84 1366 430.84C1364.34 430.84 1363 432.183 1363 433.84C1363 435.496 1364.34 436.84 1366 436.84Z" fill="white"/>
<path opacity="0.2" d="M1357.15 534.996C1357.06 533.341 1355.65 532.073 1354 532.163C1352.34 532.252 1351.07 533.666 1351.16 535.321C1351.25 536.975 1352.67 538.244 1354.32 538.154C1355.98 538.064 1357.24 536.65 1357.15 534.996Z" fill="white"/>
<path opacity="0.2" d="M1286 500.84C1287.66 500.84 1289 499.496 1289 497.84C1289 496.183 1287.66 494.84 1286 494.84C1284.34 494.84 1283 496.183 1283 497.84C1283 499.496 1284.34 500.84 1286 500.84Z" fill="white"/>
<path opacity="0.2" d="M1372 403.84C1373.66 403.84 1375 402.496 1375 400.84C1375 399.183 1373.66 397.84 1372 397.84C1370.34 397.84 1369 399.183 1369 400.84C1369 402.496 1370.34 403.84 1372 403.84Z" fill="white"/>
<path opacity="0.2" d="M1321 459.84C1322.66 459.84 1324 458.496 1324 456.84C1324 455.183 1322.66 453.84 1321 453.84C1319.34 453.84 1318 455.183 1318 456.84C1318 458.496 1319.34 459.84 1321 459.84Z" fill="white"/>
<path opacity="0.2" d="M1334 500.84C1335.66 500.84 1337 499.496 1337 497.84C1337 496.183 1335.66 494.84 1334 494.84C1332.34 494.84 1331 496.183 1331 497.84C1331 499.496 1332.34 500.84 1334 500.84Z" fill="white"/>
<path opacity="0.6" d="M1340 412.84C1341.66 412.84 1343 411.496 1343 409.84C1343 408.183 1341.66 406.84 1340 406.84C1338.34 406.84 1337 408.183 1337 409.84C1337 411.496 1338.34 412.84 1340 412.84Z" fill="white"/>
<path opacity="0.6" d="M1145 447C1146.66 447 1148 445.657 1148 444C1148 442.343 1146.66 441 1145 441C1143.34 441 1142 442.343 1142 444C1142 445.657 1143.34 447 1145 447Z" fill="white"/>
<path opacity="0.2" d="M1239 434.84C1240.66 434.84 1242 433.496 1242 431.84C1242 430.183 1240.66 428.84 1239 428.84C1237.34 428.84 1236 430.183 1236 431.84C1236 433.496 1237.34 434.84 1239 434.84Z" fill="white"/>
<path opacity="0.2" d="M1198 435C1199.66 435 1201 433.657 1201 432C1201 430.343 1199.66 429 1198 429C1196.34 429 1195 430.343 1195 432C1195 433.657 1196.34 435 1198 435Z" fill="white"/>
<path opacity="0.2" d="M985.693 646.935C986.333 645.407 985.614 643.649 984.085 643.009C982.557 642.369 980.799 643.089 980.159 644.617C979.519 646.145 980.239 647.903 981.767 648.543C983.295 649.183 985.053 648.463 985.693 646.935Z" fill="white"/>
<path opacity="0.2" d="M1005.38 538.24C1003.82 537.683 1002.1 538.497 1001.55 540.058C1000.99 541.619 1001.8 543.335 1003.36 543.891C1004.92 544.448 1006.64 543.634 1007.2 542.073C1007.75 540.512 1006.94 538.796 1005.38 538.24Z" fill="white"/>
<path opacity="0.2" d="M1144.47 682.013C1145.11 680.485 1144.39 678.727 1142.86 678.087C1141.34 677.447 1139.58 678.167 1138.94 679.695C1138.3 681.223 1139.02 682.981 1140.55 683.621C1142.07 684.261 1143.83 683.541 1144.47 682.013Z" fill="white"/>
<path opacity="0.2" d="M1176.6 499.229C1177.24 497.701 1176.52 495.943 1174.99 495.303C1173.46 494.663 1171.7 495.383 1171.06 496.911C1170.42 498.439 1171.14 500.197 1172.67 500.837C1174.2 501.477 1175.96 500.757 1176.6 499.229Z" fill="white"/>
<path opacity="0.6" d="M1101.09 563.006C1101.73 561.477 1101.01 559.72 1099.48 559.079C1097.95 558.439 1096.19 559.159 1095.55 560.687C1094.91 562.215 1095.63 563.973 1097.16 564.613C1098.69 565.254 1100.45 564.534 1101.09 563.006Z" fill="white"/>
<path opacity="0.2" d="M1198.52 584.461C1196.96 583.905 1195.24 584.719 1194.69 586.28C1194.13 587.84 1194.94 589.556 1196.51 590.113C1198.07 590.669 1199.78 589.855 1200.34 588.295C1200.9 586.734 1200.08 585.018 1198.52 584.461Z" fill="white"/>
<path opacity="0.2" d="M1129.2 661.522C1129.84 659.994 1129.12 658.236 1127.6 657.596C1126.07 656.956 1124.31 657.675 1123.67 659.204C1123.03 660.732 1123.75 662.49 1125.28 663.13C1126.81 663.77 1128.56 663.05 1129.2 661.522Z" fill="white"/>
<path opacity="0.2" d="M1072.97 544.72C1073.61 543.192 1072.89 541.434 1071.36 540.794C1069.83 540.154 1068.08 540.873 1067.43 542.402C1066.79 543.93 1067.51 545.688 1069.04 546.328C1070.57 546.968 1072.33 546.248 1072.97 544.72Z" fill="white"/>
<path opacity="0.2" d="M1104.91 613.398C1105.55 611.87 1104.83 610.112 1103.3 609.472C1101.78 608.831 1100.02 609.551 1099.38 611.079C1098.74 612.607 1099.46 614.365 1100.99 615.005C1102.51 615.646 1104.27 614.926 1104.91 613.398Z" fill="white"/>
<path opacity="0.2" d="M1147.75 617.25C1148.39 615.722 1147.67 613.964 1146.14 613.324C1144.62 612.684 1142.86 613.404 1142.22 614.932C1141.58 616.46 1142.3 618.218 1143.82 618.858C1145.35 619.498 1147.11 618.778 1147.75 617.25Z" fill="white"/>
<path opacity="0.6" d="M1068.9 577.712C1069.55 576.184 1068.83 574.426 1067.3 573.786C1065.77 573.146 1064.01 573.866 1063.37 575.394C1062.73 576.922 1063.45 578.68 1064.98 579.32C1066.51 579.96 1068.26 579.24 1068.9 577.712Z" fill="white"/>
<path opacity="0.6" d="M1123.06 536.433C1123.7 534.905 1122.98 533.147 1121.45 532.507C1119.93 531.866 1118.17 532.586 1117.53 534.114C1116.89 535.643 1117.61 537.4 1119.14 538.041C1120.66 538.681 1122.42 537.961 1123.06 536.433Z" fill="white"/>
<path opacity="0.2" d="M1050.17 679.368C1050.81 677.84 1050.09 676.082 1048.56 675.442C1047.03 674.802 1045.28 675.522 1044.63 677.05C1043.99 678.578 1044.71 680.336 1046.24 680.976C1047.77 681.616 1049.53 680.897 1050.17 679.368Z" fill="white"/>
<path opacity="0.2" d="M1142.23 488.085C1142.87 486.557 1142.15 484.799 1140.63 484.159C1139.1 483.519 1137.34 484.239 1136.7 485.767C1136.06 487.295 1136.78 489.053 1138.31 489.693C1139.83 490.333 1141.59 489.614 1142.23 488.085Z" fill="white"/>
<path opacity="0.2" d="M691 355.84C692.657 355.84 694 354.496 694 352.84C694 351.183 692.657 349.84 691 349.84C689.343 349.84 688 351.183 688 352.84C688 354.496 689.343 355.84 691 355.84Z" fill="white"/>
<path opacity="0.2" d="M798.86 331.996C798.77 330.341 797.356 329.073 795.702 329.163C794.047 329.252 792.779 330.666 792.869 332.321C792.958 333.975 794.372 335.244 796.027 335.154C797.681 335.064 798.95 333.65 798.86 331.996Z" fill="white"/>
<path opacity="0.2" d="M720 515.84C721.657 515.84 723 514.496 723 512.84C723 511.183 721.657 509.84 720 509.84C718.343 509.84 717 511.183 717 512.84C717 514.496 718.343 515.84 720 515.84Z" fill="white"/>
<path opacity="0.2" d="M901 474.84C902.657 474.84 904 473.496 904 471.84C904 470.183 902.657 468.84 901 468.84C899.343 468.84 898 470.183 898 471.84C898 473.496 899.343 474.84 901 474.84Z" fill="white"/>
<path opacity="0.6" d="M813 429.84C814.657 429.84 816 428.496 816 426.84C816 425.183 814.657 423.84 813 423.84C811.343 423.84 810 425.183 810 426.84C810 428.496 811.343 429.84 813 429.84Z" fill="white"/>
<path opacity="0.2" d="M830.86 527.996C830.77 526.341 829.356 525.073 827.702 525.163C826.047 525.252 824.779 526.666 824.869 528.321C824.958 529.975 826.372 531.244 828.027 531.154C829.681 531.064 830.95 529.65 830.86 527.996Z" fill="white"/>
<path opacity="0.2" d="M733 493.84C734.657 493.84 736 492.496 736 490.84C736 489.183 734.657 487.84 733 487.84C731.343 487.84 730 489.183 730 490.84C730 492.496 731.343 493.84 733 493.84Z" fill="white"/>
<path opacity="0.2" d="M819 396.84C820.657 396.84 822 395.496 822 393.84C822 392.183 820.657 390.84 819 390.84C817.343 390.84 816 392.183 816 393.84C816 395.496 817.343 396.84 819 396.84Z" fill="white"/>
<path opacity="0.2" d="M768 452.84C769.657 452.84 771 451.496 771 449.84C771 448.183 769.657 446.84 768 446.84C766.343 446.84 765 448.183 765 449.84C765 451.496 766.343 452.84 768 452.84Z" fill="white"/>
<path opacity="0.2" d="M781 493.84C782.657 493.84 784 492.496 784 490.84C784 489.183 782.657 487.84 781 487.84C779.343 487.84 778 489.183 778 490.84C778 492.496 779.343 493.84 781 493.84Z" fill="white"/>
<path opacity="0.6" d="M787 405.84C788.657 405.84 790 404.496 790 402.84C790 401.183 788.657 399.84 787 399.84C785.343 399.84 784 401.183 784 402.84C784 404.496 785.343 405.84 787 405.84Z" fill="white"/>
<path opacity="0.6" d="M846 439.84C847.657 439.84 849 438.496 849 436.84C849 435.183 847.657 433.84 846 433.84C844.343 433.84 843 435.183 843 436.84C843 438.496 844.343 439.84 846 439.84Z" fill="white"/>
<path opacity="0.2" d="M686 427.84C687.657 427.84 689 426.496 689 424.84C689 423.183 687.657 421.84 686 421.84C684.343 421.84 683 423.183 683 424.84C683 426.496 684.343 427.84 686 427.84Z" fill="white"/>
<path opacity="0.2" d="M898 438.84C899.657 438.84 901 437.496 901 435.84C901 434.183 899.657 432.84 898 432.84C896.343 432.84 895 434.183 895 435.84C895 437.496 896.343 438.84 898 438.84Z" fill="white"/>
<path opacity="0.2" d="M431 274.84C432.657 274.84 434 273.496 434 271.84C434 270.183 432.657 268.84 431 268.84C429.343 268.84 428 270.183 428 271.84C428 273.496 429.343 274.84 431 274.84Z" fill="white"/>
<path opacity="0.2" d="M538.86 250.996C538.77 249.341 537.356 248.073 535.702 248.163C534.047 248.252 532.779 249.666 532.869 251.321C532.958 252.975 534.372 254.244 536.027 254.154C537.681 254.064 538.95 252.65 538.86 250.996Z" fill="white"/>
<path opacity="0.2" d="M460 434.84C461.657 434.84 463 433.496 463 431.84C463 430.183 461.657 428.84 460 428.84C458.343 428.84 457 430.183 457 431.84C457 433.496 458.343 434.84 460 434.84Z" fill="white"/>
<path opacity="0.2" d="M641 393.84C642.657 393.84 644 392.496 644 390.84C644 389.183 642.657 387.84 641 387.84C639.343 387.84 638 389.183 638 390.84C638 392.496 639.343 393.84 641 393.84Z" fill="white"/>
<path opacity="0.6" d="M553 348.84C554.657 348.84 556 347.496 556 345.84C556 344.183 554.657 342.84 553 342.84C551.343 342.84 550 344.183 550 345.84C550 347.496 551.343 348.84 553 348.84Z" fill="white"/>
<path opacity="0.2" d="M570.86 446.996C570.77 445.341 569.356 444.073 567.702 444.163C566.047 444.252 564.779 445.666 564.869 447.321C564.958 448.975 566.372 450.244 568.027 450.154C569.681 450.064 570.95 448.65 570.86 446.996Z" fill="white"/>
<path opacity="0.2" d="M473 412.84C474.657 412.84 476 411.496 476 409.84C476 408.183 474.657 406.84 473 406.84C471.343 406.84 470 408.183 470 409.84C470 411.496 471.343 412.84 473 412.84Z" fill="white"/>
<path opacity="0.2" d="M559 315.84C560.657 315.84 562 314.496 562 312.84C562 311.183 560.657 309.84 559 309.84C557.343 309.84 556 311.183 556 312.84C556 314.496 557.343 315.84 559 315.84Z" fill="white"/>
<path opacity="0.2" d="M508 371.84C509.657 371.84 511 370.496 511 368.84C511 367.183 509.657 365.84 508 365.84C506.343 365.84 505 367.183 505 368.84C505 370.496 506.343 371.84 508 371.84Z" fill="white"/>
<path opacity="0.2" d="M521 412.84C522.657 412.84 524 411.496 524 409.84C524 408.183 522.657 406.84 521 406.84C519.343 406.84 518 408.183 518 409.84C518 411.496 519.343 412.84 521 412.84Z" fill="white"/>
<path opacity="0.6" d="M527 324.84C528.657 324.84 530 323.496 530 321.84C530 320.183 528.657 318.84 527 318.84C525.343 318.84 524 320.183 524 321.84C524 323.496 525.343 324.84 527 324.84Z" fill="white"/>
<path opacity="0.6" d="M586 358.84C587.657 358.84 589 357.496 589 355.84C589 354.183 587.657 352.84 586 352.84C584.343 352.84 583 354.183 583 355.84C583 357.496 584.343 358.84 586 358.84Z" fill="white"/>
<path opacity="0.2" d="M141 343.16C142.657 343.16 144 341.817 144 340.16C144 338.504 142.657 337.16 141 337.16C139.343 337.16 138 338.504 138 340.16C138 341.817 139.343 343.16 141 343.16Z" fill="white"/>
<path opacity="0.6" d="M32 499C33.6568 499 35 497.657 35 496C35 494.343 33.6568 493 32 493C30.3431 493 29 494.343 29 496C29 497.657 30.3431 499 32 499Z" fill="white"/>
<path opacity="0.2" d="M126 473.16C127.657 473.16 129 471.817 129 470.16C129 468.504 127.657 467.16 126 467.16C124.343 467.16 123 468.504 123 470.16C123 471.817 124.343 473.16 126 473.16Z" fill="white"/>
<path opacity="0.6" d="M41.1538 406.996C41.064 405.341 39.65 404.073 37.9956 404.163C36.3412 404.252 35.0728 405.666 35.1626 407.321C35.2524 408.975 36.6664 410.244 38.3208 410.154C39.9752 410.064 41.2436 408.65 41.1538 406.996Z" fill="white"/>
<path opacity="0.2" d="M256 406.16C257.657 406.16 259 404.817 259 403.16C259 401.504 257.657 400.16 256 400.16C254.343 400.16 253 401.504 253 403.16C253 404.817 254.343 406.16 256 406.16Z" fill="white"/>
<path opacity="0.6" d="M224 415.16C225.657 415.16 227 413.817 227 412.16C227 410.504 225.657 409.16 224 409.16C222.343 409.16 221 410.504 221 412.16C221 413.817 222.343 415.16 224 415.16Z" fill="white"/>
<path opacity="0.2" d="M84 395C85.6569 395 87 393.657 87 392C87 390.343 85.6569 389 84 389C82.3431 389 81 390.343 81 392C81 393.657 82.3431 395 84 395Z" fill="white"/>
<path opacity="0.2" d="M97 373C98.6569 373 100 371.657 100 370C100 368.343 98.6569 367 97 367C95.3431 367 94 368.343 94 370C94 371.657 95.3431 373 97 373Z" fill="white"/>
<path opacity="0.6" d="M210 319C211.657 319 213 317.657 213 316C213 314.343 211.657 313 210 313C208.343 313 207 314.343 207 316C207 317.657 208.343 319 210 319Z" fill="white"/>
<path opacity="0.2" d="M88 45.1605C89.6569 45.1605 91 43.8173 91 42.1605C91 40.5036 89.6569 39.1605 88 39.1605C86.3431 39.1605 85 40.5036 85 42.1605C85 43.8173 86.3431 45.1605 88 45.1605Z" fill="white"/>
<path opacity="0.6" d="M32 257C33.6568 257 35 255.657 35 254C35 252.343 33.6568 251 32 251C30.3431 251 29 252.343 29 254C29 255.657 30.3431 257 32 257Z" fill="white"/>
<path opacity="0.2" d="M73 175.16C74.6569 175.16 76 173.817 76 172.16C76 170.504 74.6569 169.16 73 169.16C71.3431 169.16 70 170.504 70 172.16C70 173.817 71.3431 175.16 73 175.16Z" fill="white"/>
<path opacity="0.6" d="M76.1538 118.996C76.064 117.341 74.65 116.073 72.9956 116.163C71.3412 116.252 70.0728 117.666 70.1626 119.321C70.2524 120.975 71.6664 122.244 73.3208 122.154C74.9752 122.064 76.2436 120.65 76.1538 118.996Z" fill="white"/>
<path opacity="0.2" d="M203 108.16C204.657 108.16 206 106.817 206 105.16C206 103.504 204.657 102.16 203 102.16C201.343 102.16 200 103.504 200 105.16C200 106.817 201.343 108.16 203 108.16Z" fill="white"/>
<path opacity="0.6" d="M171 117.16C172.657 117.16 174 115.817 174 114.16C174 112.504 172.657 111.16 171 111.16C169.343 111.16 168 112.504 168 114.16C168 115.817 169.343 117.16 171 117.16Z" fill="white"/>
<path opacity="0.2" d="M31 97C32.6569 97 34 95.6569 34 94C34 92.3431 32.6569 91 31 91C29.3431 91 28 92.3431 28 94C28 95.6569 29.3431 97 31 97Z" fill="white"/>
<path opacity="0.2" d="M44 75C45.6569 75 47 73.6569 47 72C47 70.3431 45.6569 69 44 69C42.3431 69 41 70.3431 41 72C41 73.6569 42.3431 75 44 75Z" fill="white"/>
<path opacity="0.6" d="M157 21C158.657 21 160 19.6569 160 18C160 16.3431 158.657 15 157 15C155.343 15 154 16.3431 154 18C154 19.6569 155.343 21 157 21Z" fill="white"/>
<path opacity="0.2" d="M492 40.1605C493.657 40.1605 495 38.8173 495 37.1605C495 35.5036 493.657 34.1605 492 34.1605C490.343 34.1605 489 35.5036 489 37.1605C489 38.8173 490.343 40.1605 492 40.1605Z" fill="white"/>
<path opacity="0.6" d="M331 215.16C332.657 215.16 334 213.817 334 212.16C334 210.504 332.657 209.16 331 209.16C329.343 209.16 328 210.504 328 212.16C328 213.817 329.343 215.16 331 215.16Z" fill="white"/>
<path opacity="0.2" d="M477 170.16C478.657 170.16 480 168.817 480 167.16C480 165.504 478.657 164.16 477 164.16C475.343 164.16 474 165.504 474 167.16C474 168.817 475.343 170.16 477 170.16Z" fill="white"/>
<path opacity="0.6" d="M352.621 89.5335C352.532 87.8791 351.118 86.6107 349.463 86.7005C347.809 86.7903 346.54 88.2043 346.63 89.8587C346.72 91.5131 348.134 92.7815 349.788 92.6917C351.443 92.6019 352.711 91.1879 352.621 89.5335Z" fill="white"/>
<path opacity="0.2" d="M607 103.16C608.657 103.16 610 101.817 610 100.16C610 98.5036 608.657 97.1605 607 97.1605C605.343 97.1605 604 98.5036 604 100.16C604 101.817 605.343 103.16 607 103.16Z" fill="white"/>
<path opacity="0.6" d="M575 112.16C576.657 112.16 578 110.817 578 109.16C578 107.504 576.657 106.16 575 106.16C573.343 106.16 572 107.504 572 109.16C572 110.817 573.343 112.16 575 112.16Z" fill="white"/>
<path opacity="0.2" d="M435 92C436.657 92 438 90.6569 438 89C438 87.3431 436.657 86 435 86C433.343 86 432 87.3431 432 89C432 90.6569 433.343 92 435 92Z" fill="white"/>
<path opacity="0.2" d="M448 70C449.657 70 451 68.6569 451 67C451 65.3431 449.657 64 448 64C446.343 64 445 65.3431 445 67C445 68.6569 446.343 70 448 70Z" fill="white"/>
<path opacity="0.6" d="M561 16C562.657 16 564 14.6569 564 13C564 11.3431 562.657 10 561 10C559.343 10 558 11.3431 558 13C558 14.6569 559.343 16 561 16Z" fill="white"/>
<path opacity="0.2" d="M337 395.16C338.657 395.16 340 393.817 340 392.16C340 390.504 338.657 389.16 337 389.16C335.343 389.16 334 390.504 334 392.16C334 393.817 335.343 395.16 337 395.16Z" fill="white"/>
<path opacity="0.6" d="M176 570.16C177.657 570.16 179 568.817 179 567.16C179 565.504 177.657 564.16 176 564.16C174.343 564.16 173 565.504 173 567.16C173 568.817 174.343 570.16 176 570.16Z" fill="white"/>
<path opacity="0.2" d="M322 525.16C323.657 525.16 325 523.817 325 522.16C325 520.504 323.657 519.16 322 519.16C320.343 519.16 319 520.504 319 522.16C319 523.817 320.343 525.16 322 525.16Z" fill="white"/>
<path opacity="0.6" d="M197.621 444.534C197.532 442.879 196.118 441.611 194.463 441.701C192.809 441.79 191.54 443.204 191.63 444.859C191.72 446.513 193.134 447.782 194.788 447.692C196.443 447.602 197.711 446.188 197.621 444.534Z" fill="white"/>
<path opacity="0.2" d="M452 458.16C453.657 458.16 455 456.817 455 455.16C455 453.504 453.657 452.16 452 452.16C450.343 452.16 449 453.504 449 455.16C449 456.817 450.343 458.16 452 458.16Z" fill="white"/>
<path opacity="0.6" d="M420 467.16C421.657 467.16 423 465.817 423 464.16C423 462.504 421.657 461.16 420 461.16C418.343 461.16 417 462.504 417 464.16C417 465.817 418.343 467.16 420 467.16Z" fill="white"/>
<path opacity="0.2" d="M280 447C281.657 447 283 445.657 283 444C283 442.343 281.657 441 280 441C278.343 441 277 442.343 277 444C277 445.657 278.343 447 280 447Z" fill="white"/>
<path opacity="0.2" d="M293 425C294.657 425 296 423.657 296 422C296 420.343 294.657 419 293 419C291.343 419 290 420.343 290 422C290 423.657 291.343 425 293 425Z" fill="white"/>
<path opacity="0.6" d="M406 371C407.657 371 409 369.657 409 368C409 366.343 407.657 365 406 365C404.343 365 403 366.343 403 368C403 369.657 404.343 371 406 371Z" fill="white"/>
<path opacity="0.2" d="M426 346.84C427.657 346.84 429 345.496 429 343.84C429 342.183 427.657 340.84 426 340.84C424.343 340.84 423 342.183 423 343.84C423 345.496 424.343 346.84 426 346.84Z" fill="white"/>
<path opacity="0.2" d="M638 357.84C639.657 357.84 641 356.496 641 354.84C641 353.183 639.657 351.84 638 351.84C636.343 351.84 635 353.183 635 354.84C635 356.496 636.343 357.84 638 357.84Z" fill="white"/>
<path opacity="0.2" d="M81 449.84C82.6569 449.84 84 448.496 84 446.84C84 445.183 82.6569 443.84 81 443.84C79.3431 443.84 78 445.183 78 446.84C78 448.496 79.3431 449.84 81 449.84Z" fill="white"/>
<path opacity="0.2" d="M188.86 425.996C188.77 424.341 187.356 423.073 185.702 423.163C184.047 423.252 182.779 424.666 182.869 426.321C182.958 427.975 184.372 429.244 186.027 429.154C187.681 429.064 188.95 427.65 188.86 425.996Z" fill="white"/>
<path opacity="0.2" d="M110 609.84C111.657 609.84 113 608.496 113 606.84C113 605.183 111.657 603.84 110 603.84C108.343 603.84 107 605.183 107 606.84C107 608.496 108.343 609.84 110 609.84Z" fill="white"/>
<path opacity="0.2" d="M291 568.84C292.657 568.84 294 567.496 294 565.84C294 564.183 292.657 562.84 291 562.84C289.343 562.84 288 564.183 288 565.84C288 567.496 289.343 568.84 291 568.84Z" fill="white"/>
<path opacity="0.6" d="M203 523.84C204.657 523.84 206 522.496 206 520.84C206 519.183 204.657 517.84 203 517.84C201.343 517.84 200 519.183 200 520.84C200 522.496 201.343 523.84 203 523.84Z" fill="white"/>
<path opacity="0.2" d="M220.86 621.996C220.77 620.341 219.356 619.073 217.702 619.163C216.047 619.252 214.779 620.666 214.869 622.321C214.958 623.975 216.372 625.244 218.027 625.154C219.681 625.064 220.95 623.65 220.86 621.996Z" fill="white"/>
<path opacity="0.2" d="M123 587.84C124.657 587.84 126 586.496 126 584.84C126 583.183 124.657 581.84 123 581.84C121.343 581.84 120 583.183 120 584.84C120 586.496 121.343 587.84 123 587.84Z" fill="white"/>
<path opacity="0.2" d="M209 490.84C210.657 490.84 212 489.496 212 487.84C212 486.183 210.657 484.84 209 484.84C207.343 484.84 206 486.183 206 487.84C206 489.496 207.343 490.84 209 490.84Z" fill="white"/>
<path opacity="0.2" d="M158 546.84C159.657 546.84 161 545.496 161 543.84C161 542.183 159.657 540.84 158 540.84C156.343 540.84 155 542.183 155 543.84C155 545.496 156.343 546.84 158 546.84Z" fill="white"/>
<path opacity="0.2" d="M171 587.84C172.657 587.84 174 586.496 174 584.84C174 583.183 172.657 581.84 171 581.84C169.343 581.84 168 583.183 168 584.84C168 586.496 169.343 587.84 171 587.84Z" fill="white"/>
<path opacity="0.6" d="M177 499.84C178.657 499.84 180 498.496 180 496.84C180 495.183 178.657 493.84 177 493.84C175.343 493.84 174 495.183 174 496.84C174 498.496 175.343 499.84 177 499.84Z" fill="white"/>
<path opacity="0.6" d="M236 533.84C237.657 533.84 239 532.496 239 530.84C239 529.183 237.657 527.84 236 527.84C234.343 527.84 233 529.183 233 530.84C233 532.496 234.343 533.84 236 533.84Z" fill="white"/>
<path opacity="0.2" d="M76 521.84C77.6569 521.84 79 520.496 79 518.84C79 517.183 77.6569 515.84 76 515.84C74.3431 515.84 73 517.183 73 518.84C73 520.496 74.3431 521.84 76 521.84Z" fill="white"/>
<path opacity="0.2" d="M288 532.84C289.657 532.84 291 531.496 291 529.84C291 528.183 289.657 526.84 288 526.84C286.343 526.84 285 528.183 285 529.84C285 531.496 286.343 532.84 288 532.84Z" fill="white"/>
<path opacity="0.2" d="M857 659C858.657 659 860 657.657 860 656C860 654.343 858.657 653 857 653C855.343 653 854 654.343 854 656C854 657.657 855.343 659 857 659Z" fill="white"/>
<path opacity="0.2" d="M922 717C923.657 717 925 715.657 925 714C925 712.343 923.657 711 922 711C920.343 711 919 712.343 919 714C919 715.657 920.343 717 922 717Z" fill="white"/>
<circle cx="1312" cy="538" r="5" fill="white"/>
<path d="M132.844 652.875C110.438 664.359 101.094 688.531 105.735 710.984C106.813 716.172 108.625 721.25 111.188 726.078C123.953 750.016 157.016 758 182.797 743.859C205.156 731.594 218.141 702.125 205.375 676.141C203.078 671.469 200.078 667.078 196.469 663.172C182.125 647.625 158.391 639.797 132.844 652.875V652.875Z" fill="#6B8AAF"/>
<path d="M193.234 659.922C193.234 659.922 245.187 637.485 253.875 649.094C262.562 660.719 213.812 694.125 164.015 720.906C114.218 747.688 66.2498 764.906 60.4373 752.672C54.6248 740.438 105.156 707.891 105.156 707.891C105.156 707.891 105.297 708.703 105.484 709.688C105.656 710.61 105.969 712.156 105.969 712.156L83.531 731.047L80.7029 743.86L108.468 738.672C108.468 738.672 140 727.516 160.484 716.86C180.968 706.203 223.968 675.438 223.968 675.438L236.297 654.844L195.906 662.563C195.906 662.563 195.343 661.985 194.64 661.281C193.89 660.531 193.234 659.922 193.234 659.922V659.922Z" fill="#94C7EA"/>
<path d="M105.578 710.172C105.578 710.172 64.6094 734.406 69.8438 747.328C74.5938 759.047 126.438 739.984 169.547 715.39C209.156 692.781 251.797 665.343 244.469 653.125C238.016 642.359 194.641 661.297 194.641 661.297C194.641 661.297 195.109 661.734 195.625 662.281C196 662.687 196.422 663.109 196.422 663.109C196.422 663.109 228.734 655 231.125 659.781C233.516 664.562 201.109 695.031 166.984 712.734C132.859 730.437 86.7188 749.656 84.0469 741.906C80.2031 730.765 106.109 712.687 106.109 712.687C106.109 712.687 105.859 711.609 105.797 711.265C105.688 710.797 105.578 710.172 105.578 710.172V710.172Z" fill="#6BA5AF"/>
<path d="M196.203 662.906C196.203 662.906 234.078 648.312 239.297 655.937C244.516 663.562 214.563 688.719 166.641 714.187C118.719 739.656 78.9221 753.719 74.5002 744.516C70.0784 735.312 105.797 711.266 105.797 711.266C105.797 711.266 105.953 711.969 106.125 712.703C106.297 713.453 106.766 715.156 106.766 715.156C106.766 715.156 84.7659 731.812 88.2346 735.734C91.7034 739.656 117.078 736.031 163.25 712.516C209.891 688.75 227.781 668.078 222.938 663.406C219.781 660.375 198.688 665.75 198.688 665.75C198.688 665.75 197.953 664.875 197.453 664.297C196.969 663.703 196.203 662.906 196.203 662.906V662.906Z" fill="#A7CED6"/>
<path d="M198.125 665.078C198.125 665.078 223.703 654.75 227.781 662.812C232.515 672.187 192.906 698.14 162.906 714.484C133.687 730.39 89.8123 745.89 85.2811 737.89C81.5467 731.281 106.375 713.812 106.375 713.812C106.375 713.812 106.578 714.609 106.844 715.531C106.984 716.015 107.281 716.953 107.281 716.953C107.281 716.953 90.6405 728.812 93.7342 733.437C96.828 738.062 128.484 729.719 161.344 712.562C200.906 691.922 224.14 671.281 220.797 665.812C217.453 660.359 199.875 667.234 199.875 667.234C199.875 667.234 199.39 666.609 199.094 666.234C198.703 665.75 198.125 665.078 198.125 665.078V665.078Z" fill="#C2CED7"/>
<path d="M1214 312.805C1235.66 312.805 1253.21 294.984 1253.21 273C1253.21 251.016 1235.66 233.195 1214 233.195C1192.34 233.195 1174.79 251.016 1174.79 273C1174.79 294.984 1192.34 312.805 1214 312.805Z" fill="#466989"/>
<path d="M1185.51 290.684C1181.89 290.934 1179.31 289.538 1177.43 287.271C1178.21 289.344 1179.21 291.295 1180.32 293.182C1183.14 294.258 1186.15 294.708 1189.63 292.169C1187.93 291.324 1186.4 290.625 1185.51 290.684ZM1232.65 238.041C1232.81 239.262 1231.96 239.902 1229.9 239.392C1226.4 238.529 1223.32 242.281 1221.56 245.418C1218.09 251.586 1203.76 258.535 1203.75 253.187C1203.75 250.659 1191.09 256.324 1189.48 253.786C1187.95 251.389 1183.38 252.312 1182.43 249.438C1178.15 255.335 1175.56 262.321 1174.95 269.62C1176.34 272.293 1178.12 274.392 1179.91 275.3C1182.33 276.529 1193.57 280.988 1195.22 278.14C1197.95 273.391 1214.39 276.752 1214 274.254C1213.24 269.471 1222.9 273.398 1226.36 267.234C1228.13 264.096 1231.98 261.688 1235.49 262.552C1239.58 263.56 1244.63 256.436 1244.25 247.678C1241.03 243.739 1237.09 240.467 1232.65 238.041V238.041ZM1244.31 298.248C1243.07 298.866 1241.85 299.338 1240.74 299.461C1232.49 300.366 1230.71 306.924 1225.18 305.8C1222.33 305.22 1218.45 310.319 1214 310.628C1211.07 310.847 1208.14 311.23 1205.25 311.774C1208.12 312.45 1211.05 312.796 1214 312.805C1226.21 312.805 1237.12 307.136 1244.31 298.248V298.248Z" fill="#434D43"/>
<path opacity="0.2" d="M1270 311C1271.66 311 1273 309.657 1273 308C1273 306.343 1271.66 305 1270 305C1268.34 305 1267 306.343 1267 308C1267 309.657 1268.34 311 1270 311Z" fill="white"/>
<path d="M277 228C304.614 228 327 205.614 327 178C327 150.386 304.614 128 277 128C249.386 128 227 150.386 227 178C227 205.614 249.386 228 277 228Z" fill="#296D9A"/>
<path opacity="0.88" d="M235.17 150.291C250.598 136.578 282.353 132.953 295.812 132.023C294.51 131.483 293.181 130.982 291.813 130.547C270.137 123.653 247.247 132.319 235.17 150.291ZM240.039 174.943C235.147 189.914 237.209 190.742 251.043 193.134C257.818 194.305 264.294 193.741 274.433 192.178L298.948 181.087C298.948 181.087 300.12 187.551 307.177 181.606C311.925 177.607 312.114 172.683 312.114 172.683C312.114 172.683 304.388 177.178 298.254 176.669C295.213 176.418 271.743 180.634 275.989 167.489C279.834 155.584 307.389 146.597 313.665 144.581C313.054 143.908 312.426 143.251 311.778 142.61C308.431 142.085 302.305 141.933 292.102 143.23C276.925 145.16 245.521 158.169 240.039 174.943Z" fill="#0D551D"/>
<path opacity="0.88" d="M307.791 196.845C291.463 206.376 292.778 208.536 285.322 207.941C278.65 207.409 282.012 198.36 275.752 200.834C250.824 210.686 237.213 180.438 241.275 194.088C245.229 207.263 265.07 215.061 272.361 215.943C283.559 217.42 295.595 212.127 300.225 211.084C305.017 210.003 307.295 203.831 309.249 205.204L308.584 209.627C308.584 209.627 302.788 214.72 299.561 215.507C281.779 222.869 262.438 222.161 246.312 214.743C243.854 213.611 242.342 213.032 241.556 212.87C243.643 214.98 245.912 216.901 248.338 218.611C270.927 234.493 302.115 229.055 317.997 206.465C324.624 197.067 327.793 185.664 326.965 174.194C322.884 177.499 319.755 189.861 307.791 196.845Z" fill="#DBD8D8"/>
<path d="M723 293.793C736.14 293.793 746.792 283.14 746.792 270C746.792 256.86 736.14 246.207 723 246.207C709.859 246.207 699.207 256.86 699.207 270C699.207 283.14 709.859 293.793 723 293.793Z" fill="#895006"/>
<path d="M722.289 259.346C725.231 259.346 727.616 256.961 727.616 254.02C727.616 251.078 725.231 248.693 722.289 248.693C719.348 248.693 716.963 251.078 716.963 254.02C716.963 256.961 719.348 259.346 722.289 259.346Z" fill="#AA650B"/>
<path d="M721.935 257.216C724.288 257.216 726.196 255.308 726.196 252.954C726.196 250.601 724.288 248.693 721.935 248.693C719.581 248.693 717.674 250.601 717.674 252.954C717.674 255.308 719.581 257.216 721.935 257.216Z" fill="#895006"/>
<path d="M739.335 267.514C741.296 267.514 742.886 265.924 742.886 263.963C742.886 262.002 741.296 260.412 739.335 260.412C737.374 260.412 735.784 262.002 735.784 263.963C735.784 265.924 737.374 267.514 739.335 267.514Z" fill="#AA650B"/>
<path d="M738.98 266.094C740.549 266.094 741.821 264.822 741.821 263.253C741.821 261.684 740.549 260.412 738.98 260.412C737.411 260.412 736.139 261.684 736.139 263.253C736.139 264.822 737.411 266.094 738.98 266.094Z" fill="#895006"/>
<path d="M730.457 290.952C733.399 290.952 735.784 288.567 735.784 285.625C735.784 282.683 733.399 280.298 730.457 280.298C727.515 280.298 725.131 282.683 725.131 285.625C725.131 288.567 727.515 290.952 730.457 290.952Z" fill="#AA650B"/>
<path d="M730.457 288.821C732.811 288.821 734.719 286.913 734.719 284.56C734.719 282.206 732.811 280.298 730.457 280.298C728.104 280.298 726.196 282.206 726.196 284.56C726.196 286.913 728.104 288.821 730.457 288.821Z" fill="#895006"/>
<path d="M705.599 268.224C707.561 268.224 709.15 266.634 709.15 264.673C709.15 262.712 707.561 261.122 705.599 261.122C703.638 261.122 702.048 262.712 702.048 264.673C702.048 266.634 703.638 268.224 705.599 268.224Z" fill="#AA650B"/>
<path d="M705.244 266.804C706.813 266.804 708.085 265.532 708.085 263.963C708.085 262.394 706.813 261.122 705.244 261.122C703.675 261.122 702.404 262.394 702.404 263.963C702.404 265.532 703.675 266.804 705.244 266.804Z" fill="#895006"/>
<path d="M716.963 285.27C721.866 285.27 725.841 281.295 725.841 276.392C725.841 271.489 721.866 267.514 716.963 267.514C712.06 267.514 708.085 271.489 708.085 276.392C708.085 281.295 712.06 285.27 716.963 285.27Z" fill="#AA650B"/>
<path d="M716.253 281.719C720.175 281.719 723.355 278.539 723.355 274.616C723.355 270.694 720.175 267.514 716.253 267.514C712.33 267.514 709.15 270.694 709.15 274.616C709.15 278.539 712.33 281.719 716.253 281.719Z" fill="#895006"/>
<g clip-path="url(#clip0)">
<path fill-rule="evenodd" clip-rule="evenodd" d="M1358.7 790H1379V731.626C1376.19 726.963 1373.15 722.102 1369.87 717.037C1321.43 642.209 1239.9 602.818 1196 636.533C1186.77 643.622 1168.02 671.968 1192.54 705.131C1203.67 720.19 1224.35 727.706 1251.99 737.755C1262.62 741.62 1274.29 745.859 1286.83 751.047C1305.29 758.676 1333.44 771.983 1358.7 790Z" fill="#5DADEC"/>
<path d="M1317.16 715.716C1324.73 714.058 1347.76 721.791 1354.07 724C1333.13 683.728 1271.03 645.739 1259.85 645.983C1258.23 646.02 1257.67 646.853 1258.47 648.611C1273.96 682.382 1250.83 704.18 1231.66 709.967C1229.7 710.561 1228.7 711.306 1228.51 712.088C1228.26 713.157 1229.59 714.29 1232.5 715.178C1274.09 727.854 1350.01 756.301 1379 785.85C1369.85 769.283 1330.41 722.623 1317.16 715.716Z" fill="#8CCAF7"/>
<path d="M1328.88 704.848C1323.48 693.694 1288.43 658.129 1272.19 648.58C1270.7 648.618 1270.2 649.473 1270.93 651.277C1285.08 685.942 1263.94 708.316 1246.42 714.256C1244.63 714.866 1243.72 715.631 1243.55 716.433C1258.76 716.799 1293.3 715.843 1319.07 730.645C1294.86 704.566 1295.44 698.048 1328.88 704.848V704.848Z" fill="#AECDE2"/>
<path d="M1285.56 676.965C1285.56 671.652 1284.45 666.391 1282.29 661.482C1280.14 656.574 1276.97 652.113 1272.99 648.357C1269 644.6 1264.27 641.62 1259.06 639.586C1253.86 637.553 1248.28 636.507 1242.64 636.507C1237 636.507 1231.42 637.553 1226.21 639.586C1221.01 641.62 1216.28 644.6 1212.29 648.357C1208.3 652.113 1205.14 656.574 1202.99 661.482C1200.83 666.391 1199.72 671.652 1199.72 676.965C1199.72 687.695 1204.24 697.985 1212.29 705.573C1220.34 713.16 1231.26 717.422 1242.64 717.422C1254.02 717.422 1264.94 713.16 1272.99 705.573C1281.04 697.985 1285.56 687.695 1285.56 676.965V676.965Z" fill="#AECDE2"/>
<path opacity="0.6" d="M1259.87 784.462C1259.77 782.549 1258.1 781.083 1256.16 781.187C1254.21 781.291 1252.72 782.925 1252.83 784.837C1252.93 786.75 1254.59 788.216 1256.54 788.112C1258.49 788.008 1259.98 786.374 1259.87 784.462Z" fill="white"/>
<path opacity="0.2" d="M1349.33 648.256C1350.53 648.256 1351.5 647.238 1351.5 645.982C1351.5 644.726 1350.53 643.708 1349.33 643.708C1348.13 643.708 1347.16 644.726 1347.16 645.982C1347.16 647.238 1348.13 648.256 1349.33 648.256Z" fill="white"/>
</g>
<defs>
<clipPath id="clip0">
<rect width="166" height="199" fill="white" transform="translate(1379 624) rotate(90)"/>
</clipPath>
</defs>
</svg>
